<svg width="20" height="21" viewBox="0 0 20 21" fill="none" xmlns="http://www.w3.org/2000/svg">
<g clip-path="url(#clip0_1510_1919)">
<path d="M10 0.562012C4.475 0.562012 0 4.96201 0 10.3887C0 14.7312 2.865 18.4137 6.8375 19.712C7.3375 19.8045 7.52083 19.5003 7.52083 19.2395C7.52083 19.0062 7.5125 18.3878 7.50833 17.5687C4.72667 18.1612 4.14 16.2503 4.14 16.2503C3.685 15.1162 3.0275 14.8128 3.0275 14.8128C2.12167 14.2037 3.0975 14.2162 3.0975 14.2162C4.10167 14.2845 4.62917 15.2287 4.62917 15.2287C5.52083 16.7312 6.97 16.297 7.54167 16.0462C7.63167 15.4103 7.88917 14.9778 8.175 14.732C5.95417 14.4862 3.62 13.6412 3.62 9.87618C3.62 8.80368 4.0075 7.92701 4.64917 7.23951C4.53667 6.99118 4.19917 5.99201 4.73667 4.63868C4.73667 4.63868 5.57417 4.37535 7.48667 5.64618C8.28667 5.42785 9.13667 5.31951 9.98667 5.31451C10.8367 5.31951 11.6867 5.42785 12.4867 5.64618C14.3867 4.37535 15.2242 4.63868 15.2242 4.63868C15.7617 5.99201 15.4242 6.99118 15.3242 7.23951C15.9617 7.92701 16.3492 8.80368 16.3492 9.87618C16.3492 13.6512 14.0117 14.482 11.7867 14.7237C12.1367 15.0187 12.4617 15.6212 12.4617 16.542C12.4617 17.857 12.4492 18.9137 12.4492 19.2328C12.4492 19.4903 12.6242 19.7978 13.1367 19.6995C17.1375 18.4095 20 14.7245 20 10.3887C20 4.96201 15.5225 0.562012 10 0.562012Z" fill="currentColor"/>
</g>
<defs>
<clipPath id="clip0_1510_1919">
<rect width="20" height="20" fill="white" transform="translate(0 0.145325)"/>
</clipPath>
</defs>
</svg>
